<svg width="116" height="40" viewBox="0 0 116 40" fill="none" xmlns="http://www.w3.org/2000/svg">
<path d="M102.5 26V32.5M102.5 32.5C101.395 32.5 100.335 32.8424 99.5537 33.4519C98.7723 34.0614 98.3333 34.888 98.3333 35.75C98.3333 36.612 98.7723 37.4386 99.5537 38.0481C100.335 38.6576 101.395 39 102.5 39C103.605 39 104.665 38.6576 105.446 38.0481C106.228 37.4386 106.667 36.612 106.667 35.75C106.667 34.888 106.228 34.0614 105.446 33.4519C104.665 32.8424 103.605 32.5 102.5 32.5ZM94.1667 19.5C95.2717 19.5 96.3315 19.1576 97.1129 18.5481C97.8943 17.9386 98.3333 17.112 98.3333 16.25C98.3333 15.388 97.8943 14.5614 97.1129 13.9519C96.3315 13.3424 95.2717 13 94.1667 13C93.0616 13 92.0018 13.3424 91.2204 13.9519C90.439 14.5614 90 15.388 90 16.25C90 17.112 90.439 17.9386 91.2204 18.5481C92.0018 19.1576 93.0616 19.5 94.1667 19.5ZM94.1667 19.5V22.75C94.1667 23.612 94.6057 24.4386 95.3871 25.0481C96.1685 25.6576 97.2283 26 98.3333 26H106.667C107.772 26 108.832 25.6576 109.613 25.0481C110.394 24.4386 110.833 23.612 110.833 22.75V19.5M110.833 19.5C111.938 19.5 112.998 19.1576 113.78 18.5481C114.561 17.9386 115 17.112 115 16.25C115 15.388 114.561 14.5614 113.78 13.9519C112.998 13.3424 111.938 13 110.833 13C109.728 13 108.668 13.3424 107.887 13.9519C107.106 14.5614 106.667 15.388 106.667 16.25C106.667 17.112 107.106 17.9386 107.887 18.5481C108.668 19.1576 109.728 19.5 110.833 19.5Z" stroke="#F17522" stroke-width="2" stroke-linecap="round" stroke-linejoin="round"/>
<path d="M2.34 6.56H6.81L9.66 8.24V24.35L10.53 25.64H15.63V29H8.76L6.06 25.01V9.92H2.34V6.56ZM22.5483 12.47H31.5783L34.2783 16.49V26.15L31.5183 29H22.5183L19.7883 24.98V15.32L22.5483 12.47ZM23.3883 24.32L24.2583 25.61H30.0783L30.6183 25.04V17.12L29.7483 15.83H23.9583L23.3883 16.46V24.32ZM40.5366 12.47H49.5666L52.2666 16.49V26.15L49.5066 29H40.5066L37.7766 24.98V15.32L40.5366 12.47ZM41.3766 24.32L42.2466 25.61H48.0666L48.6066 25.04V17.12L47.7366 15.83H41.9466L41.3766 16.46V24.32ZM60.9548 12.47H67.5548L70.1948 16.49V26.15L67.4348 29H61.0148L59.3648 28.04V35.48H55.7348V12.47H59.3648V13.46L60.9548 12.47ZM59.3648 24.32L60.2348 25.64H66.0248L66.5648 25.07V17.18L65.6948 15.86H59.9348L59.3648 16.43V24.32ZM74.2931 6.56H78.7631L81.6131 8.24V24.35L82.4831 25.64H87.5831V29H80.7131L78.0131 25.01V9.92H74.2931V6.56Z" fill="#F5F1FF"/>
</svg>
